<svg width="200" height="200" viewBox="0 0 200 200" fill="none" xmlns="http://www.w3.org/2000/svg">
<path d="M100.137 27C116.086 27.0001 131.382 33.0849 142.659 43.915C153.937 54.7452 160.272 69.4338 160.272 84.75C160.272 105.356 150.33 127.196 131.571 147.914C126.572 153.426 121.217 158.631 115.539 163.5H149.339C150.789 163.5 152.179 164.054 153.204 165.038C154.229 166.023 154.806 167.358 154.806 168.75C154.806 170.142 154.229 171.477 153.204 172.462C152.179 173.446 150.789 174 149.339 174H50.9336C49.4838 174 48.0935 173.446 47.0684 172.462C46.0432 171.477 45.4668 170.142 45.4668 168.75C45.4668 167.358 46.0432 166.023 47.0684 165.038C48.0935 164.054 49.4838 163.5 50.9336 163.5H84.7334C79.0556 158.631 73.7008 153.426 68.7012 147.914C49.9155 127.196 40 105.356 40 84.75C40 69.4339 46.3358 54.7452 57.6133 43.915C68.891 33.0848 84.1876 27 100.137 27Z" fill="#152A4F"/>
<path d="M106.241 82.939C106.241 94.5043 97.0074 103.878 85.6203 103.878C74.2335 103.878 65 94.5043 65 82.939C65 71.3738 74.2335 62 85.6203 62C97.0074 62 106.241 71.3738 106.241 82.939Z" fill="#0E5B92"/>
<path d="M135.795 89.1792C134.894 96.7629 128.108 102.168 120.64 101.249C113.171 100.334 107.85 93.4428 108.752 85.8592C109.653 78.2755 116.439 72.8707 123.907 73.7892C131.376 74.7047 136.697 81.5955 135.795 89.1792Z" fill="#E61F4F"/>
<path d="M102.909 132.77C102.909 136.353 100.049 139.256 96.5211 139.256C92.9936 139.256 90.1328 136.353 90.1328 132.77C90.1328 129.186 92.9936 126.283 96.5211 126.283C100.049 126.283 102.909 129.186 102.909 132.77Z" fill="#FBBC0D"/>
<path d="M119.999 112.898C119.999 120.196 114.093 126.112 106.806 126.112C99.5195 126.112 93.6133 120.196 93.6133 112.898C93.6133 105.599 99.5195 99.6836 106.806 99.6836C114.093 99.6836 119.999 105.599 119.999 112.898Z" fill="#00AC98"/>
</svg>
