<svg width="1270" height="620" viewBox="0 0 1270 620" fill="none" xmlns="http://www.w3.org/2000/svg">
<path d="M1206 0C1241.35 0 1270 28.6538 1270 64V251C1270 361.457 1180.46 451 1070 451H664V561H844.5C860.792 561 874 574.208 874 590.5C874 606.792 860.792 620 844.5 620H425.5C409.208 620 396 606.792 396 590.5C396 574.208 409.208 561 425.5 561H605V451H200C89.5431 451 0 361.457 0 251V64C0 28.6538 28.6538 0 64 0H1206Z" fill="#152A4F"/>
<g clip-path="url(#clip0_2526_1421)">
<g clip-path="url(#clip1_2526_1421)">
<g clip-path="url(#clip2_2526_1421)">
<mask id="mask0_2526_1421" style="mask-type:luminance" maskUnits="userSpaceOnUse" x="89" y="82" width="1092" height="281">
<path d="M1180.2 82.2402H89.8047V362.107H1180.2V82.2402Z" fill="white"/>
</mask>
<g mask="url(#mask0_2526_1421)">
<path d="M239.201 158.093C239.201 199.988 205.752 233.945 164.503 233.945C123.253 233.945 89.8047 199.988 89.8047 158.093C89.8047 116.197 123.253 82.2402 164.503 82.2402C205.752 82.2402 239.201 116.197 239.201 158.093Z" fill="#0E5B92"/>
<path d="M346.282 180.703C343.017 208.175 318.435 227.755 291.381 224.427C264.327 221.111 245.052 196.148 248.318 168.676C251.583 141.204 276.165 121.625 303.219 124.952C330.272 128.269 349.548 153.231 346.282 180.703Z" fill="#E61F4F"/>
<path d="M227.149 338.611C227.149 351.592 216.786 362.108 204.007 362.108C191.229 362.108 180.865 351.592 180.865 338.611C180.865 325.63 191.229 315.113 204.007 315.113C216.786 315.113 227.149 325.63 227.149 338.611Z" fill="#FBBC0D"/>
<path d="M289.045 266.619C289.045 293.058 267.649 314.488 241.253 314.488C214.857 314.488 193.461 293.058 193.461 266.619C193.461 240.181 214.857 218.75 241.253 218.75C267.649 218.75 289.045 240.181 289.045 266.619Z" fill="#00AC98"/>
<path d="M907.744 148.269H908.627C911.586 148.269 914.421 149.45 917.154 151.824C918.491 153.141 919.411 154.277 919.909 155.231C921.384 157.843 922.133 160.58 922.133 163.442V164.351C922.133 164.918 922.086 165.202 922.006 165.202H900.271C900.736 167.372 901.507 168.996 902.572 170.063C904.207 171.823 906.075 172.709 908.162 172.709C910.793 172.709 912.992 171.38 914.773 168.723C915.115 168.053 915.318 167.712 915.384 167.689C918.866 169.268 920.625 170.086 920.668 170.12C920.385 170.824 919.749 171.891 918.753 173.311C915.784 176.82 912.269 178.569 908.22 178.569H908.096C903.924 178.569 900.351 176.718 897.345 173.005C895.281 170.109 894.252 166.929 894.252 163.487V163.363C894.252 158.615 896.066 154.606 899.682 151.324C902.357 149.28 905.032 148.258 907.722 148.258L907.744 148.269ZM900.805 159.66H915.522V159.626C915.18 158.593 914.388 157.412 913.152 156.094C911.611 154.777 909.932 154.118 908.118 154.118C905.352 154.118 903.073 155.583 901.292 158.525L900.805 159.649V159.66Z" fill="white"/>
<path d="M953.798 133.38V177.853H947.939V174.81C947.597 175.173 947.259 175.502 946.94 175.809C946.34 176.32 945.795 176.706 945.329 176.99C944.719 177.354 944.039 177.672 943.265 177.933C941.724 178.364 940.419 178.569 939.354 178.569H938.958C936.348 178.569 933.844 177.83 931.463 176.354C930.976 176.07 930.453 175.707 929.886 175.264C929.399 174.878 928.763 174.242 927.97 173.345C927.244 172.436 926.677 171.596 926.269 170.823C925.012 168.472 924.387 166.008 924.387 163.441C924.387 161.499 924.739 159.614 925.455 157.786C926.066 156.162 927.065 154.549 928.457 152.948C929.163 152.244 929.704 151.744 930.068 151.46C932.801 149.336 935.807 148.268 939.082 148.268H939.118C941.953 148.268 944.468 149.155 946.678 150.915C947.201 151.346 947.619 151.755 947.928 152.164H947.961V133.38L947.994 133.346H953.787L953.824 133.38H953.798ZM945.907 157.513C945.773 157.308 945.409 156.934 944.842 156.389C944.232 155.844 943.628 155.412 943.018 155.117C941.655 154.469 940.397 154.14 939.22 154.14C936.588 154.14 934.367 155.151 932.539 157.184C931.02 159.024 930.26 161.09 930.26 163.385V163.51C930.26 164.884 930.555 166.224 931.147 167.519C931.485 168.268 932.009 169.052 932.688 169.858C934.513 171.766 936.657 172.72 939.118 172.72C940.328 172.72 941.553 172.436 942.789 171.868C943.254 171.641 943.81 171.289 944.457 170.801L945.002 170.312C945.489 169.824 945.864 169.404 946.125 169.04C947.314 167.359 947.914 165.519 947.914 163.532V163.385C947.914 161.193 947.234 159.239 945.886 157.513" fill="white"/>
<path d="M972.484 177.853H972.215C966.999 177.853 963.244 175.877 960.976 171.925C960.184 170.369 959.799 168.529 959.799 166.417V148.814L959.89 148.723H965.571L965.662 148.814V166.473C965.662 168.972 966.69 170.608 968.755 171.402C969.627 171.788 970.739 171.981 972.088 171.981H972.575C975.05 171.981 976.794 171.595 977.827 170.823C979.175 170.017 979.855 168.518 979.855 166.326V148.814L979.913 148.723H985.616L985.674 148.814V177.603L985.616 177.694H979.913L979.855 177.603V175.661H979.8C978.768 176.433 977.42 177.058 975.762 177.546C974.868 177.751 973.778 177.853 972.484 177.853Z" fill="white"/>
<path d="M1004.62 148.269H1004.68C1007.71 148.269 1010.54 149.201 1013.17 151.063C1013.66 151.426 1014.2 151.903 1014.81 152.494C1015.56 153.266 1016.06 153.845 1016.3 154.22C1016.6 154.629 1016.75 154.845 1016.75 154.89L1011.9 158.116H1011.87C1011.64 157.752 1011.24 157.275 1010.68 156.685C1008.91 154.981 1006.89 154.129 1004.62 154.129C1002.35 154.129 1000.49 154.924 998.733 156.503C998.09 157.15 997.69 157.616 997.556 157.9C996.374 159.558 995.797 161.409 995.797 163.431C995.797 165.623 996.502 167.61 997.897 169.416C998.337 169.938 998.802 170.404 999.289 170.813C1000.91 172.073 1002.7 172.698 1004.66 172.698C1006.45 172.698 1008.1 172.153 1009.64 171.051C1009.98 170.824 1010.46 170.415 1011.07 169.802C1011.41 169.393 1011.71 169.007 1011.96 168.621H1011.99L1016.88 171.846C1016.54 172.391 1016.07 173.005 1015.48 173.674C1014.79 174.424 1014.3 174.901 1014.02 175.105C1013.35 175.651 1012.77 176.082 1012.28 176.378C1009.88 177.842 1007.37 178.569 1004.79 178.569H1004.52C1001.75 178.569 999.108 177.752 996.592 176.105C996.105 175.764 995.662 175.423 995.255 175.105C994.506 174.413 993.95 173.845 993.587 173.402C992.783 172.414 992.202 171.574 991.853 170.903C991.468 170.256 991.093 169.393 990.73 168.325C990.206 166.679 989.938 165.134 989.938 163.669V163.181C989.938 160.909 990.49 158.627 991.602 156.344C991.944 155.719 992.34 155.072 992.783 154.402C993.121 153.936 993.645 153.323 994.324 152.574C995.128 151.801 995.833 151.211 996.422 150.813C998.951 149.11 1001.68 148.258 1004.62 148.258" fill="white"/>
<path d="M1033.38 148.27C1036.75 148.27 1039.64 149.553 1042.06 152.131V148.792L1042.15 148.735H1047.89L1047.94 148.792V177.797L1047.89 177.854H1042.15L1042.06 177.797V174.845C1039.79 177.343 1036.88 178.581 1033.32 178.581H1033.28C1028.85 178.581 1025.08 176.787 1021.99 173.198C1019.69 170.302 1018.53 167.042 1018.53 163.442V163.409C1018.53 158.945 1020.25 155.095 1023.69 151.858C1026.55 149.462 1029.77 148.27 1033.38 148.27ZM1024.39 163.409C1024.39 166.611 1025.76 169.234 1028.52 171.279C1030.06 172.21 1031.51 172.675 1032.88 172.675H1033.56C1035.49 172.675 1037.38 171.88 1039.2 170.302C1041.11 168.36 1042.06 166.066 1042.06 163.431V163.397C1042.06 160.16 1040.69 157.537 1037.93 155.549C1036.41 154.618 1034.92 154.153 1033.44 154.153H1032.95C1030.53 154.153 1028.33 155.277 1026.37 157.525C1025.05 159.388 1024.39 161.342 1024.39 163.397" fill="white"/>
<path d="M897.574 192.539H903.4L903.433 192.573V207.893H910.964L910.997 207.927V213.765L910.964 213.799H903.433V228.483C903.433 229.619 903.818 230.38 904.592 230.766C905.112 231.05 905.657 231.197 906.224 231.197C907.017 231.197 908.14 230.936 909.59 230.402L909.83 230.277L912.018 235.774C911.531 235.979 910.746 236.24 909.648 236.569C908.354 236.899 907.22 237.057 906.246 237.057H906.188C904.262 237.057 902.47 236.467 900.78 235.297C900.496 235.093 900.122 234.775 899.66 234.321L899.148 233.65C898.821 233.23 898.57 232.81 898.388 232.401C897.843 231.163 897.574 229.926 897.574 228.688V213.787H893.263L893.23 213.753V207.916L893.263 207.882H897.574V192.527V192.539Z" fill="white"/>
<path d="M928.221 207.744H928.98C930.987 207.744 933.062 208.335 935.203 209.504V209.539C934.352 213.388 933.891 215.41 933.811 215.592C931.87 214.32 930.147 213.672 928.649 213.672H928.162C926.225 213.672 924.513 214.388 923.038 215.83C921.925 217.193 921.373 219.76 921.373 223.553V236.931L921.315 237.022H915.634L915.543 236.931V208.38L915.634 208.323H921.315L921.373 208.38V210.572C923.594 208.687 925.883 207.744 928.231 207.744" fill="white"/>
<path d="M950.785 207.461C954.162 207.461 957.055 208.744 959.468 211.322V207.983L959.559 207.927H965.298L965.353 207.983V236.989L965.298 237.045H959.559L959.468 236.989V234.036C957.2 236.534 954.289 237.772 950.727 237.772H950.694C946.26 237.772 942.495 235.978 939.402 232.389C937.097 229.493 935.941 226.234 935.941 222.634V222.6C935.941 218.147 937.664 214.286 941.103 211.049C943.959 208.665 947.18 207.461 950.785 207.461ZM941.804 222.6C941.804 225.802 943.174 228.426 945.933 230.47C947.474 231.401 948.924 231.867 950.298 231.867H950.967C952.904 231.867 954.787 231.072 956.612 229.493C958.516 227.551 959.468 225.257 959.468 222.622V222.588C959.468 219.351 958.098 216.728 955.343 214.74C953.824 213.809 952.326 213.344 950.851 213.344H950.364C947.939 213.344 945.737 214.468 943.778 216.717C942.462 218.579 941.804 220.533 941.804 222.588" fill="white"/>
<path d="M984.652 207.926H984.924C990.14 207.926 993.891 209.902 996.148 213.854C996.94 215.41 997.329 217.25 997.329 219.362V236.965L997.271 237.056H991.568L991.51 236.965V219.305C991.51 216.807 990.467 215.171 988.381 214.377C987.508 213.99 986.396 213.797 985.048 213.797H984.561C982.089 213.797 980.341 214.183 979.312 214.956C977.971 215.762 977.302 217.261 977.302 219.453V236.965L977.212 237.056H971.534L971.443 236.965V208.175L971.534 208.085H977.212L977.302 208.175V209.822H977.339C978.371 209.254 979.73 208.732 981.41 208.244C982.282 208.039 983.358 207.937 984.652 207.937" fill="white"/>
<path d="M1013.86 206.246C1017.57 206.246 1020.71 207.404 1023.29 209.71C1023.89 210.278 1024.29 210.721 1024.54 211.05L1024.9 211.629C1024.86 211.686 1024.31 212.038 1023.26 212.663C1022.23 213.287 1021.13 213.992 1019.95 214.764C1019.59 214.321 1019.22 213.969 1018.86 213.696C1017.5 212.663 1015.86 212.152 1013.92 212.152H1013.79C1011.67 212.152 1009.97 212.663 1008.69 213.673C1007.99 214.287 1007.62 214.934 1007.62 215.65C1007.62 216.093 1007.82 216.445 1008.2 216.683C1008.59 217.013 1009.34 217.364 1010.45 217.751C1011.99 218.262 1014.37 218.795 1017.61 219.363C1018.67 219.602 1019.56 219.886 1020.31 220.215C1021.01 220.499 1021.73 220.885 1022.43 221.373C1022.75 221.601 1023.22 221.998 1023.79 222.589C1025.27 224.213 1026 226.03 1026 228.063V228.153C1026 230.221 1025.23 232.151 1023.7 233.957C1023.06 234.627 1022.59 235.036 1022.31 235.206C1021.5 235.774 1020.83 236.172 1020.3 236.387C1018.24 237.341 1016.04 237.818 1013.71 237.818H1013.5C1010.46 237.818 1007.69 237.023 1005.18 235.422C1004.64 235.059 1004.05 234.581 1003.43 233.991C1002.84 233.423 1002.44 232.98 1002.22 232.651C1001.81 232.14 1001.46 231.617 1001.15 231.072L1006.22 228.153H1006.25L1006.49 228.585C1006.72 228.926 1007.07 229.335 1007.55 229.8C1008.46 230.652 1009.6 231.265 1010.96 231.629C1011.85 231.833 1012.74 231.935 1013.63 231.935C1015.41 231.935 1017 231.538 1018.4 230.754C1018.65 230.618 1018.99 230.357 1019.37 229.993C1019.89 229.369 1020.15 228.733 1020.15 228.108C1020.15 226.995 1019.29 226.109 1017.58 225.462C1017.01 225.257 1015.97 225.042 1014.45 224.792C1011.2 224.167 1008.76 223.508 1007.17 222.816C1006.48 222.532 1005.8 222.168 1005.14 221.726C1003.6 220.737 1002.59 219.466 1002.1 217.921C1001.86 217.228 1001.74 216.502 1001.74 215.729V215.547C1001.74 213.617 1002.46 211.822 1003.89 210.13C1004.51 209.506 1004.94 209.097 1005.2 208.915C1005.89 208.404 1006.54 208.006 1007.14 207.7C1009.16 206.746 1011.4 206.269 1013.85 206.269" fill="white"/>
<path d="M1044.27 192.537H1045.99L1046.03 192.571V198.409L1045.99 198.443H1044.47C1041.86 198.443 1039.98 199.658 1038.83 202.088C1038.12 203.587 1037.76 205.529 1037.76 207.926H1045.98L1046.02 207.96V213.763L1045.98 213.797H1037.76V237.022L1037.73 237.056H1031.9V213.797H1026.29L1026.25 213.763V207.96L1026.29 207.926H1031.9V207.801C1031.9 202.508 1033.35 198.477 1036.26 195.706C1037.35 194.695 1038.46 193.957 1039.6 193.491C1041.15 192.866 1042.7 192.548 1044.25 192.548" fill="white"/>
<path d="M1059.46 207.461C1062.76 207.461 1065.78 208.528 1068.51 210.652C1068.9 210.936 1069.44 211.447 1070.14 212.174C1071.54 213.73 1072.54 215.331 1073.12 216.978C1073.82 218.806 1074.18 220.691 1074.18 222.668C1074.18 225.223 1073.57 227.676 1072.33 230.027C1071.9 230.799 1071.34 231.64 1070.6 232.548C1069.8 233.457 1069.17 234.093 1068.68 234.467C1068.14 234.91 1067.62 235.285 1067.14 235.592C1064.73 237.057 1062.22 237.784 1059.61 237.784H1059.34C1056.58 237.784 1053.94 236.977 1051.41 235.353C1050.93 234.99 1050.49 234.649 1050.11 234.32C1049.33 233.65 1048.76 233.082 1048.41 232.616C1047.98 232.128 1047.59 231.605 1047.23 231.038C1046.82 230.39 1046.48 229.766 1046.2 229.152C1045.25 227.04 1044.77 224.95 1044.77 222.861V222.407C1044.77 220.135 1045.34 217.852 1046.47 215.569C1046.8 214.945 1047.17 214.298 1047.63 213.65C1047.97 213.162 1048.49 212.549 1049.17 211.799C1050.16 210.891 1050.87 210.3 1051.29 210.039C1053.77 208.335 1056.49 207.483 1059.45 207.483L1059.46 207.461ZM1050.62 222.679C1050.62 224.894 1051.33 226.892 1052.77 228.698C1053.4 229.402 1053.89 229.879 1054.24 230.095C1055.84 231.31 1057.57 231.923 1059.45 231.923C1061.75 231.923 1063.81 231.049 1065.59 229.311C1066.29 228.562 1066.79 227.914 1067.07 227.369C1067.9 225.87 1068.32 224.314 1068.32 222.713V222.622C1068.32 220.294 1067.52 218.193 1065.93 216.331C1065.24 215.604 1064.77 215.183 1064.53 215.081C1064.19 214.797 1063.86 214.57 1063.56 214.411C1062.24 213.707 1060.88 213.344 1059.46 213.344C1057.32 213.344 1055.36 214.15 1053.58 215.74C1052.95 216.365 1052.56 216.83 1052.4 217.137C1051.22 218.784 1050.64 220.623 1050.64 222.668" fill="white"/>
<path d="M1091.13 207.744H1091.89C1093.9 207.744 1095.97 208.335 1098.11 209.504V209.539C1097.26 213.388 1096.8 215.41 1096.72 215.592C1094.78 214.32 1093.06 213.672 1091.56 213.672H1091.07C1089.14 213.672 1087.43 214.388 1085.95 215.83C1084.84 217.193 1084.29 219.76 1084.29 223.553V236.931L1084.23 237.022H1078.55L1078.46 236.931V208.38L1078.55 208.323H1084.23L1084.29 208.38V210.572C1086.51 208.687 1088.8 207.744 1091.14 207.744" fill="white"/>
<path d="M1113.91 207.926H1114.18C1118.1 207.926 1121.27 209.107 1123.68 211.48C1125.98 209.107 1129.16 207.926 1133.21 207.926H1134.15C1139.49 207.926 1143.28 209.947 1145.5 213.979C1146.23 215.557 1146.59 217.125 1146.59 218.658V236.954L1146.53 237.045H1140.83L1140.77 236.954V218.715C1140.77 216.523 1139.56 215.012 1137.13 214.183C1136.38 213.922 1135.43 213.786 1134.28 213.786H1133.09C1129.94 213.786 1127.89 214.842 1126.96 216.943C1126.72 217.511 1126.6 218.147 1126.6 218.862V236.954L1126.54 237.045H1120.84L1120.78 236.954V219.385C1120.78 217.216 1120.09 215.739 1118.68 214.944C1117.61 214.172 1116.16 213.786 1114.32 213.786H1113.83C1111.36 213.786 1109.61 214.172 1108.58 214.944C1107.24 215.75 1106.58 217.25 1106.58 219.441V236.954L1106.48 237.045H1100.8L1100.71 236.954V208.164L1100.8 208.073H1106.48L1106.58 208.164V209.811H1106.61C1107.64 209.243 1108.99 208.721 1110.68 208.232C1111.55 208.028 1112.63 207.926 1113.92 207.926" fill="white"/>
<path d="M1165.62 207.461C1169 207.461 1171.89 208.744 1174.31 211.322V207.983L1174.4 207.927H1180.14L1180.19 207.983V236.989L1180.14 237.045H1174.4L1174.31 236.989V234.036C1172.04 236.534 1169.13 237.772 1165.57 237.772H1165.53C1161.1 237.772 1157.34 235.978 1154.24 232.389C1151.94 229.493 1150.78 226.234 1150.78 222.634V222.6C1150.78 218.147 1152.51 214.286 1155.94 211.049C1158.8 208.665 1162.02 207.461 1165.62 207.461ZM1156.65 222.6C1156.65 225.802 1158.02 228.426 1160.77 230.47C1162.31 231.401 1163.77 231.867 1165.14 231.867H1165.81C1167.75 231.867 1169.63 231.072 1171.45 229.493C1173.36 227.551 1174.31 225.257 1174.31 222.622V222.588C1174.31 219.351 1172.94 216.728 1170.18 214.74C1168.66 213.809 1167.17 213.344 1165.69 213.344H1165.21C1162.78 213.344 1160.58 214.468 1158.62 216.717C1157.3 218.579 1156.65 220.533 1156.65 222.588" fill="white"/>
<path d="M899.977 251.73H900.213C901.111 251.73 901.95 252.071 902.732 252.764C903.524 253.57 903.91 254.479 903.91 255.467V255.649C903.91 256.557 903.572 257.409 902.877 258.204C902.074 258.999 901.165 259.385 900.18 259.385H899.999C899.068 259.385 898.218 259.033 897.447 258.318C897.018 257.874 896.746 257.477 896.597 257.136C896.371 256.625 896.27 256.148 896.27 255.683V255.433C896.27 254.502 896.644 253.627 897.393 252.821L897.843 252.423C898.548 251.958 899.261 251.73 899.966 251.73H899.977ZM903.026 267.108V296.204L902.994 296.238H897.164L897.131 296.204V267.108H903.015H903.026Z" fill="white"/>
<path d="M922.7 267.119H922.969C928.185 267.119 931.939 269.095 934.196 273.047C934.989 274.614 935.374 276.443 935.374 278.556V296.158L935.32 296.249H929.613L929.559 296.158V278.498C929.559 276 928.516 274.365 926.429 273.57C925.557 273.184 924.445 272.991 923.096 272.991H922.609C920.134 272.991 918.389 273.377 917.357 274.149C916.02 274.955 915.351 276.454 915.351 278.646V296.158L915.26 296.249H909.579L909.488 296.158V267.369L909.579 267.278H915.26L915.351 267.369V269.016H915.384C916.416 268.448 917.764 267.925 919.454 267.437C920.33 267.233 921.406 267.13 922.711 267.13" fill="white"/>
<path d="M954.187 266.664H954.241C957.28 266.664 960.104 267.595 962.735 269.458C963.222 269.821 963.768 270.298 964.378 270.889C965.127 271.661 965.625 272.24 965.865 272.615C966.17 273.023 966.315 273.239 966.315 273.285L961.463 276.51H961.431C961.205 276.147 960.805 275.67 960.253 275.079C958.472 273.376 956.451 272.524 954.187 272.524C951.919 272.524 950.058 273.319 948.299 274.898C947.655 275.545 947.255 276.01 947.121 276.294C945.943 277.952 945.365 279.804 945.365 281.825C945.365 284.017 946.067 286.004 947.463 287.81C947.902 288.333 948.368 288.809 948.855 289.207C950.476 290.468 952.268 291.092 954.23 291.092C956.011 291.092 957.665 290.547 959.21 289.446C959.548 289.218 960.024 288.809 960.638 288.196C960.976 287.787 961.271 287.401 961.521 287.015H961.554L966.443 290.24C966.101 290.786 965.636 291.399 965.047 292.069C964.356 292.818 963.869 293.295 963.597 293.5C962.928 294.045 962.35 294.477 961.859 294.772C959.457 296.237 956.953 296.964 954.365 296.964H954.096C951.326 296.964 948.687 296.146 946.169 294.499C945.682 294.159 945.238 293.818 944.831 293.5C944.082 292.807 943.526 292.239 943.163 291.796C942.36 290.797 941.782 289.968 941.429 289.298C941.044 288.651 940.669 287.787 940.306 286.72C939.786 285.073 939.514 283.529 939.514 282.064V281.575C939.514 279.304 940.07 277.021 941.178 274.738C941.52 274.114 941.916 273.466 942.36 272.796C942.698 272.331 943.221 271.718 943.901 270.968C944.708 270.196 945.409 269.605 945.998 269.208C948.528 267.504 951.261 266.652 954.198 266.652" fill="white"/>
<path d="M969.99 251.73H975.783L975.82 251.765V296.215L975.783 296.238H969.99L969.957 296.215V251.765L969.99 251.73Z" fill="white"/>
<path d="M994.505 296.238H994.232C989.017 296.238 985.262 294.261 982.994 290.309C982.202 288.754 981.816 286.914 981.816 284.801V267.198L981.907 267.107H987.588L987.679 267.198V284.858C987.679 287.357 988.711 288.992 990.772 289.787C991.648 290.173 992.757 290.366 994.12 290.366H994.607C997.078 290.366 998.823 289.98 999.855 289.208C1001.2 288.401 1001.89 286.902 1001.89 284.71V267.198L1001.94 267.107H1007.64L1007.7 267.198V295.988L1007.64 296.079H1001.94L1001.89 295.988V294.046H1001.83C1000.8 294.818 999.448 295.443 997.791 295.931C996.897 296.135 995.806 296.238 994.516 296.238" fill="white"/>
<path d="M1016.94 251.73H1017.18C1018.08 251.73 1018.92 252.071 1019.7 252.764C1020.49 253.57 1020.88 254.479 1020.88 255.467V255.649C1020.88 256.557 1020.54 257.409 1019.85 258.204C1019.04 258.999 1018.13 259.385 1017.15 259.385H1016.97C1016.04 259.385 1015.19 259.033 1014.42 258.318C1013.99 257.874 1013.71 257.477 1013.57 257.136C1013.34 256.625 1013.23 256.148 1013.23 255.683V255.433C1013.23 254.502 1013.61 253.627 1014.36 252.821L1014.81 252.423C1015.51 251.958 1016.23 251.73 1016.93 251.73H1016.94ZM1019.99 267.108V296.204L1019.96 296.238H1014.13L1014.1 296.204V267.108H1019.98H1019.99Z" fill="white"/>
<path d="M523.536 162.909H523.787C535.534 162.909 545.646 166.724 554.151 174.368C556.815 176.969 558.559 178.956 559.399 180.342C560.148 181.318 560.602 182.045 560.773 182.533L552.032 187.042C549.695 183.306 546.282 180.012 541.778 177.173C536.279 174.084 530.249 172.539 523.66 172.539C514.5 172.539 506.959 174.902 501.052 179.603C498.715 181.715 497.345 183.215 496.923 184.112C494.51 187.61 493.296 191.176 493.296 194.833V195.684C493.296 200.886 495.837 204.986 500.914 207.984C503.491 209.608 507.242 211.232 512.163 212.856C518.491 214.809 526.698 216.717 536.781 218.58C540.692 219.636 543.901 220.772 546.394 221.987C548.47 222.964 550.636 224.304 552.893 226.007C554.968 227.711 556.633 229.335 557.891 230.879C561.972 236.16 564.015 241.964 564.015 248.301C564.015 255.535 561.474 262.236 556.397 268.403C554.311 270.674 552.733 272.184 551.643 272.911C548.811 274.944 546.394 276.398 544.399 277.295C537.573 280.463 530.329 282.042 522.664 282.042C512.254 282.042 502.844 279.203 494.43 273.513C492.932 272.457 490.893 270.708 488.309 268.278L486.685 266.574C484.271 263.655 482.527 261.214 481.436 259.26C480.938 258.454 480.517 257.681 480.189 256.943C483.272 255.319 486.187 253.9 488.931 252.673C493.263 260.884 499.715 266.608 508.296 269.856C513.047 271.56 517.833 272.412 522.664 272.412C530.238 272.412 537.155 270.538 543.403 266.801C547.732 264.121 550.85 260.339 552.766 255.467C553.685 253.116 554.14 250.833 554.14 248.641V247.915C554.14 242.963 552.097 238.488 548.015 234.514C544.933 231.913 541.349 229.971 537.268 228.665C535.429 228.177 531.314 227.325 524.895 226.11C512.57 223.35 503.909 220.59 498.908 217.819C488.578 212.788 483.421 205.224 483.421 195.151C483.421 187.757 486.165 181.057 491.664 175.049C493.91 172.778 495.666 171.267 496.912 170.54C504.327 165.418 513.196 162.863 523.525 162.863" fill="white"/>
<path d="M676.12 184.701C675.327 183.588 673.455 181.555 670.508 178.603C667.004 175.411 664.023 173.106 661.563 171.675C652.411 166.019 642.07 163.191 630.538 163.191C628.557 163.271 626.841 163.35 625.413 163.43C620.88 164.225 617.693 164.906 615.868 165.463C613.397 166.178 610.936 167.212 608.464 168.575C606.716 169.528 604.641 170.926 602.26 172.754C601.548 173.151 599.756 174.866 596.899 177.887V165.747H573.993L573.881 165.872V310.876L573.993 311.001H596.899V267.175L598.087 268.492C600.708 270.957 602.783 272.717 604.292 273.75C612.408 279.486 621.469 282.359 631.493 282.359C645.258 282.359 657.696 277.702 668.828 268.378L670.973 266.584C674.08 263.313 676.141 260.929 677.174 259.418C685.293 248.266 689.342 236.114 689.342 222.974C689.342 211.901 686.642 201.589 681.233 192.026C679.725 189.641 678.013 187.211 676.098 184.735L676.12 184.701ZM664.645 233.854C663.297 238.635 660.712 243.257 656.889 247.72C654.813 249.867 653.229 251.343 652.116 252.138C645.836 256.92 639.155 259.305 632.071 259.305H630.516C626.536 259.305 622.047 258.226 617.035 256.079C615.606 255.284 613.927 254.251 612.023 252.979C611.07 252.422 609.359 250.912 606.887 248.436C604.666 245.892 602.954 243.734 601.762 241.985C600.65 239.918 599.618 237.567 598.655 234.933C597.466 230.708 596.863 227.483 596.863 225.256V220.475C596.863 218.726 597.262 216.012 598.055 212.355C598.927 209.891 599.719 207.892 600.436 206.381C601.152 204.95 602.104 203.315 603.303 201.487C603.939 200.294 605.684 198.261 608.555 195.388C611.568 192.685 614.313 190.766 616.784 189.653C621.796 187.427 626.412 186.303 630.628 186.303H631.581C639.293 186.303 646.334 188.812 652.694 193.832C653.25 194.15 654.802 195.672 657.343 198.375C663.307 205.541 666.288 213.672 666.288 222.747C666.288 226.494 665.735 230.197 664.623 233.865" fill="white"/>
<path d="M866.741 200.476C864.429 194.025 860.54 187.734 855.052 181.59C852.264 178.716 850.12 176.729 848.611 175.616C837.875 167.246 826.026 163.066 813.054 163.066C801.445 163.066 790.741 166.417 780.956 173.106C779.288 174.139 776.5 176.445 772.611 180.034C769.9 182.986 767.872 185.405 766.519 187.325C764.775 189.88 763.256 192.379 761.987 194.854C757.531 203.86 755.307 212.821 755.307 221.736V223.53C755.307 231.741 757.178 239.987 760.918 248.266C762.031 250.651 763.379 253.126 764.978 255.67C766.407 257.896 767.962 259.975 769.627 261.882C770.976 263.711 773.211 265.948 776.308 268.572C777.816 269.844 779.528 271.206 781.432 272.637C791.377 279.009 801.75 282.2 812.567 282.2H813.642C823.907 282.2 833.771 279.338 843.239 273.591C845.144 272.399 847.172 270.922 849.327 269.173C851.232 267.742 853.736 265.233 856.844 261.644C859.712 258.055 861.969 254.75 863.648 251.729C868.5 242.485 870.924 232.854 870.924 222.815C870.924 215.092 869.532 207.642 866.752 200.465L866.741 200.476ZM846.572 222.917C846.572 228.97 845.006 234.83 841.865 240.498C840.79 242.565 838.918 245.018 836.243 247.857C829.508 254.444 821.784 257.737 813.065 257.737C805.955 257.737 799.369 255.443 793.325 250.844C792.02 250.003 790.185 248.243 787.815 245.563C782.385 238.749 779.662 231.162 779.662 222.803C779.662 215.069 781.883 208.096 786.317 201.884C786.932 200.737 788.415 198.977 790.795 196.603C797.534 190.55 804.948 187.529 813.054 187.529C818.408 187.529 823.576 188.869 828.545 191.55C829.689 192.163 830.914 193.003 832.215 194.082C833.135 194.468 834.891 196.035 837.5 198.795C843.545 205.848 846.561 213.775 846.561 222.588V222.928L846.572 222.917Z" fill="white"/>
<path d="M458.147 181.636C446.821 169.451 433.748 163.363 418.917 163.363H418.293C404.381 163.363 391.977 168.78 381.069 179.626C369.742 191.812 364.084 206.11 364.084 222.544V222.919C364.084 236.433 368.086 248.823 376.08 260.09C387.906 274.774 401.977 282.11 418.305 282.11C435.8 282.11 450.415 274.354 462.163 258.84C464.951 254.559 467.197 250.209 468.909 245.791L460.04 242.316C458.546 245.996 456.46 249.789 453.796 253.707C444.134 266.222 432.433 272.48 418.69 272.48C408.361 272.48 398.87 268.732 390.208 261.214C379.21 250.538 373.722 237.853 373.722 223.168H473.172L473.423 222.919C473.423 207.575 468.342 193.811 458.183 181.625L458.147 181.636ZM374.481 213.538C376.318 204.202 379.64 196.525 384.482 190.517C394.063 178.842 405.39 172.994 418.463 172.994C423.373 172.994 427.999 173.789 432.33 175.367C443.159 179.206 451.651 186.838 457.819 198.263C460.982 205.44 462.65 210.528 462.821 213.526H374.492L374.481 213.538Z" fill="white"/>
<path d="M750.68 186.451C751.647 186.451 752.643 186.53 753.653 186.667C754.798 184.668 756.067 182.635 757.473 180.591C759.084 178.319 761.501 175.423 764.706 171.914C766.611 170.154 768.29 168.677 769.755 167.428C766.793 165.918 763.78 164.759 760.828 164.089C757.848 163.465 754.9 163.146 751.996 163.146H751.658C751.193 163.146 750.738 163.146 750.284 163.146H749.016C746.09 163.146 743.2 163.521 740.329 164.259C737.712 164.816 736.145 165.361 736.145 165.361C731.213 167.235 727.164 170.154 724.991 171.925C724.013 172.663 723.028 173.425 722.065 174.254V165.645L721.825 165.406H699.512L699.148 165.645V281.53L699.512 281.894H721.825L722.065 281.53V225.269C722.065 219 722.461 213.582 723.232 209.005C724.511 203.134 728.673 191.096 741.452 187.382C743.8 186.757 746.239 186.428 748.787 186.428H750.695L750.68 186.451Z" fill="white"/>
</g>
</g>
</g>
</g>
<defs>
<clipPath id="clip0_2526_1421">
<rect width="1090.46" height="283.52" fill="white" transform="translate(90 84)"/>
</clipPath>
<clipPath id="clip1_2526_1421">
<rect width="1090.46" height="279.867" fill="white" transform="translate(90 84)"/>
</clipPath>
<clipPath id="clip2_2526_1421">
<rect width="1090.39" height="279.867" fill="white" transform="translate(89.8047 82.2402)"/>
</clipPath>
</defs>
</svg>
